<?xml version="1.0" encoding="iso-8859-1"?>
<!-- Generator: Adobe Illustrator 19.0.0, SVG Export Plug-In . SVG Version: 6.00 Build 0)  -->
<svg version="1.1" id="Capa_1" xmlns="http://www.w3.org/2000/svg" xmlns:xlink="http://www.w3.org/1999/xlink" x="0px" y="0px"
	 viewBox="0 0 512 512" style="enable-background:new 0 0 512 512;" xml:space="preserve">
<circle style="fill:#DCD732;" cx="256" cy="256" r="256"/>
<path style="fill:#A0AF32;" d="M98.898,138.632v234.735l137.918,137.918C243.15,511.755,249.546,512,256,512
	c141.385,0,256-114.615,256-256c0-6.454-0.245-12.85-0.714-19.184l-98.184-98.184h-93.933l-32.878-32.878L98.898,138.632z"/>
<g>
	<polygon style="fill:#006941;" points="98.898,373.368 286.292,406.246 286.292,105.754 98.898,138.632 	"/>
	<rect x="295.41" y="138.63" style="fill:#006941;" width="117.69" height="234.74"/>
</g>
<g>
	<rect x="295.41" y="162.46" style="fill:#FFFFFF;" width="29.59" height="32.22"/>
	<rect x="295.41" y="214.08" style="fill:#FFFFFF;" width="29.59" height="32.22"/>
	<rect x="295.41" y="265.7" style="fill:#FFFFFF;" width="29.59" height="32.22"/>
	<rect x="295.41" y="317.32" style="fill:#FFFFFF;" width="29.59" height="32.22"/>
	<rect x="340.12" y="162.46" style="fill:#FFFFFF;" width="51.618" height="32.22"/>
	<rect x="340.12" y="214.08" style="fill:#FFFFFF;" width="51.618" height="32.22"/>
	<rect x="340.12" y="265.7" style="fill:#FFFFFF;" width="51.618" height="32.22"/>
	<rect x="340.12" y="317.32" style="fill:#FFFFFF;" width="51.618" height="32.22"/>
	<polygon style="fill:#FFFFFF;" points="226.195,207.943 204.81,207.943 188.638,236.65 172.467,207.943 151.081,207.943 
		177.946,255.631 148.451,307.989 169.836,307.989 188.638,274.612 207.441,307.989 228.826,307.989 199.331,255.631 	"/>
</g>
<g>
</g>
<g>
</g>
<g>
</g>
<g>
</g>
<g>
</g>
<g>
</g>
<g>
</g>
<g>
</g>
<g>
</g>
<g>
</g>
<g>
</g>
<g>
</g>
<g>
</g>
<g>
</g>
<g>
</g>
</svg>
