<?xml version="1.0" encoding="iso-8859-1"?>
<!-- Generator: Adobe Illustrator 19.0.0, SVG Export Plug-In . SVG Version: 6.00 Build 0)  -->
<svg version="1.1" id="Capa_1" xmlns="http://www.w3.org/2000/svg" xmlns:xlink="http://www.w3.org/1999/xlink" x="0px" y="0px"
	 viewBox="0 0 512 512" style="enable-background:new 0 0 512 512;" xml:space="preserve">
<rect x="66.738" y="106.12" style="fill:#50D399;" width="375.78" height="398.38"/>
<g>
	<path style="fill:#32A873;" d="M442.516,188.768h-60.524c4.395-12.292,6.795-25.533,6.795-39.335
		c0-15.304-2.947-29.919-8.298-43.313H163.432c-5.35,13.395-8.298,28.009-8.298,43.313c0,13.803,2.401,27.043,6.796,39.335H66.74
		v49.485h129.336c20.415,17.459,46.917,28.008,75.886,28.008c28.968,0,55.47-10.548,75.885-28.008h94.67L442.516,188.768
		L442.516,188.768z"/>
	<rect x="417.989" y="106.12" style="fill:#32A873;" width="24.524" height="398.38"/>
</g>
<rect x="112.509" y="298.3" style="fill:#E7C474;" width="126.13" height="206.2"/>
<rect x="279.449" y="298.3" style="fill:#D0F0FE;" width="122.27" height="114"/>
<rect x="39.369" y="163.66" style="fill:#E7C474;" width="430.51" height="49.48"/>
<rect x="444.659" y="163.66" style="fill:#D99A4A;" width="25.22" height="49.48"/>
<circle style="fill:#D0F0FE;" cx="257.819" cy="124.33" r="116.83"/>
<path style="fill:#E36F91;" d="M264.95,77.496l39.7,39.7c14.9,14.9,14.9,39.067,0,53.966c-14.9,14.9-39.067,14.9-53.966,0
	l-39.699-39.699c-14.9-14.9-14.9-39.067,0-53.967c7.456-7.456,17.22-11.165,26.983-11.178
	C247.73,66.331,257.494,70.04,264.95,77.496z"/>
<path style="fill:#FFFFFF;" d="M284.8,97.346l19.85,19.85c14.9,14.9,14.9,39.067,0,53.966c-14.9,14.9-39.067,14.9-53.966,0
	l-19.85-19.85L284.8,97.346z"/>
<path d="M472.622,497h-22.605V220.65h19.87c4.143,0,7.5-3.358,7.5-7.5v-49.49c0-4.142-3.357-7.5-7.5-7.5h-19.87v-50.04
	c0-4.142-3.357-7.5-7.5-7.5h-63.052C367.589,42.359,317.56,0,257.817,0S148.046,42.359,136.169,98.62H66.737
	c-4.142,0-7.5,3.358-7.5,7.5v50.04h-19.86c-4.143,0-7.5,3.358-7.5,7.5v49.49c0,4.142,3.357,7.5,7.5,7.5h139.924
	c21.423,17.495,48.764,28.005,78.516,28.005c51.995,0,96.628-32.086,115.162-77.495h89.408v34.49h-88.68c-4.143,0-7.5,3.358-7.5,7.5
	s3.357,7.5,7.5,7.5h61.31V497H246.143V298.299c0-4.142-3.357-7.5-7.5-7.5H112.51c-4.143,0-7.5,3.358-7.5,7.5V497H74.237V243.15
	c0-4.142-3.357-7.5-7.5-7.5c-4.142,0-7.5,3.358-7.5,7.5V497H43.012c-4.143,0-7.5,3.358-7.5,7.5s3.357,7.5,7.5,7.5h23.725h45.774
	h126.133h203.873h30.105c4.143,0,7.5-3.358,7.5-7.5S476.764,497,472.622,497z M46.876,171.16h67.38c4.143,0,7.5-3.358,7.5-7.5
	s-3.357-7.5-7.5-7.5h-40.02v-42.54h59.719c-0.303,3.53-0.466,7.1-0.466,10.707c0,31.066,11.453,59.507,30.358,81.322H46.876V171.16z
	 M257.817,233.655c-60.283,0-109.327-49.044-109.327-109.327S197.535,15,257.817,15s109.327,49.044,109.327,109.328
	S318.1,233.655,257.817,233.655z M381.678,113.62h53.338v42.54h-57.009c2.694-10.164,4.137-20.833,4.137-31.833
	C382.144,120.72,381.98,117.151,381.678,113.62z M120.01,497V305.799h111.133V497H120.01z"/>
<path d="M138.067,389.718c-4.143,0-7.5,3.358-7.5,7.5v23.776c0,4.142,3.357,7.5,7.5,7.5s7.5-3.358,7.5-7.5v-23.776
	C145.567,393.076,142.21,389.718,138.067,389.718z"/>
<path d="M401.712,419.795c4.143,0,7.5-3.358,7.5-7.5V298.299c0-4.142-3.357-7.5-7.5-7.5H279.448c-4.143,0-7.5,3.358-7.5,7.5v113.997
	c0,4.142,3.357,7.5,7.5,7.5h122.264V419.795z M286.948,305.799h107.265v98.997H286.948V305.799z"/>
<path d="M290.104,92.043c0,0-0.002-0.002-0.003-0.002l-19.848-19.848c-0.001,0-0.001,0-0.001,0
	c-8.608-8.609-20.071-13.358-32.296-13.374c-12.204,0.016-23.667,4.766-32.276,13.374c-8.623,8.623-13.371,20.089-13.371,32.287
	s4.748,23.664,13.371,32.287l39.699,39.7c8.901,8.901,20.594,13.352,32.287,13.352c11.692,0,23.385-4.451,32.287-13.352
	c17.802-17.803,17.802-46.771,0-64.573L290.104,92.043z M207.309,104.479c0-8.191,3.189-15.89,8.978-21.68
	c5.782-5.781,13.484-8.971,21.67-8.981c8.206,0.011,15.909,3.2,21.689,8.981l14.547,14.547l-43.36,43.36l-14.546-14.546
	C210.498,120.369,207.309,112.67,207.309,104.479z M260.791,169.781c-1.699-1.121-3.31-2.428-4.804-3.922l-14.547-14.547
	l43.36-43.36l14.546,14.546c3.362,3.362,5.779,7.317,7.25,11.532c0.327,0.937,0.607,1.886,0.841,2.845
	c0.117,0.479,0.222,0.961,0.315,1.444c0.374,1.934,0.56,3.896,0.56,5.859c0,7.851-2.988,15.703-8.965,21.68
	c-2.989,2.989-6.447,5.23-10.138,6.725C279.98,176.318,269.287,175.384,260.791,169.781z"/>
<g>
</g>
<g>
</g>
<g>
</g>
<g>
</g>
<g>
</g>
<g>
</g>
<g>
</g>
<g>
</g>
<g>
</g>
<g>
</g>
<g>
</g>
<g>
</g>
<g>
</g>
<g>
</g>
<g>
</g>
</svg>
