<svg height="512pt" viewBox="0 -1 512 512" width="512pt" xmlns="http://www.w3.org/2000/svg"><path d="m22.230469 222.648438h467.539062v280.542968h-467.539062zm0 0" fill="#c9f0ff"/><path d="m464.648438 222.648438h25.121093v280.542968h-25.121093zm0 0" fill="#9ae7fd"/><path d="m455.953125 18.699219c-2.277344-6.703125-8.574219-11.214844-15.65625-11.214844h-368.59375c-7.082031 0-13.378906 4.507813-15.65625 11.214844l-48.5625 143.085937 248.515625-.058594 248.515625.058594zm0 0" fill="#fa0"/><path d="m504.515625 161.789062-17.816406-.003906-48.566407-143.082031c-2.277343-6.710937-8.570312-11.222656-15.652343-11.222656l17.816406.003906c7.082031 0 13.382813 4.507813 15.652344 11.21875zm0 0" fill="#ff9500"/><path d="m208.996094 503.191406h-130.859375v-204.011718c0-4.417969 3.582031-8 8-8h114.859375c4.417968 0 8 3.582031 8 8zm0 0" fill="#0573cf"/><path d="m208.996094 299.183594v204.007812h-24.582032v-204.007812c0-4.421875-3.582031-8.003906-8.003906-8.003906h24.582032c4.421874 0 8.003906 3.582031 8.003906 8.003906zm0 0" fill="#005aaf"/><path d="m428.351562 429.859375h-154.683593c-4.417969 0-8-3.582031-8-8.003906v-122.675781c0-4.417969 3.582031-8 8-8h154.683593c4.417969 0 8 3.582031 8 8v122.679687c0 4.417969-3.582031 8-8 8zm0 0" fill="#ffcd6b"/><path d="m436.347656 299.183594v122.671875c0 4.417969-3.578125 8-8 8h-24.632812c4.421875 0 8-3.582031 8-8v-122.671875c0-4.421875-3.578125-8.003906-8-8.003906h24.632812c4.421875 0 8 3.582031 8 8.003906zm0 0" fill="#ffc143"/><g fill="#0573cf"><path d="m7.484375 161.785156v46.589844c0 17.15625 13.90625 31.066406 31.066406 31.066406 17.15625 0 31.066407-13.910156 31.066407-31.066406v-46.589844zm0 0"/><path d="m131.6875 161.785156v46.589844c0 17.15625 13.910156 31.066406 31.066406 31.066406 17.160156 0 31.066406-13.910156 31.066406-31.066406v-46.589844zm0 0"/><path d="m255.894531 161.785156v46.589844c0 17.15625 13.910157 31.066406 31.066407 31.066406s31.066406-13.910156 31.066406-31.066406v-46.589844zm0 0"/></g><path d="m69.585938 161.785156v46.589844c0 17.15625 13.910156 31.066406 31.066406 31.066406s31.066406-13.910156 31.066406-31.066406v-46.589844zm0 0" fill="#ffcd6b"/><path d="m193.792969 161.785156v46.589844c0 17.15625 13.90625 31.066406 31.066406 31.066406 17.15625 0 31.066406-13.910156 31.066406-31.066406v-46.589844zm0 0" fill="#ffcd6b"/><path d="m317.996094 161.785156v46.589844c0 17.15625 13.910156 31.066406 31.066406 31.066406 17.160156 0 31.066406-13.910156 31.066406-31.066406v-46.589844zm0 0" fill="#ffcd6b"/><path d="m69.617188 161.789062v46.585938c0 17.152344-13.90625 31.066406-31.066407 31.066406-3.0625 0-6.015625-.445312-8.804687-1.265625 12.875-3.792969 22.273437-15.703125 22.273437-29.800781v-46.585938zm0 0" fill="#005aaf"/><path d="m193.824219 161.789062v46.585938c0 17.152344-13.914063 31.066406-31.066407 31.066406-3.054687 0-6.019531-.445312-8.804687-1.277344 12.875-3.78125 22.273437-15.691406 22.273437-29.789062v-46.589844h17.597657zm0 0" fill="#005aaf"/><path d="m318.03125 161.789062v46.585938c0 17.152344-13.914062 31.066406-31.066406 31.066406-3.0625 0-6.019532-.445312-8.804688-1.265625 12.875-3.792969 22.265625-15.703125 22.265625-29.800781v-46.585938zm0 0" fill="#005aaf"/><path d="m131.714844 161.789062v46.585938c0 17.152344-13.902344 31.066406-31.066406 31.066406-3.054688 0-6.007813-.445312-8.792969-1.277344 12.871093-3.78125 22.261719-15.691406 22.261719-29.789062v-46.589844h17.597656zm0 0" fill="#ffc143"/><path d="m255.921875 161.789062v46.585938c0 17.152344-13.902344 31.066406-31.066406 31.066406-3.054688 0-6.007813-.445312-8.792969-1.265625 12.871094-3.792969 22.261719-15.703125 22.261719-29.800781v-46.585938zm0 0" fill="#ffc143"/><path d="m380.128906 161.789062v46.585938c0 17.152344-13.90625 31.066406-31.066406 31.066406-3.0625 0-6.015625-.445312-8.800781-1.265625 12.871093-3.792969 22.269531-15.703125 22.269531-29.800781v-46.585938zm0 0" fill="#ffc143"/><path d="m380.28125 161.785156v46.589844c0 17.15625 13.910156 31.066406 31.066406 31.066406s31.066406-13.910156 31.066406-31.066406v-46.589844zm0 0" fill="#0573cf"/><path d="m442.382812 161.785156v46.589844c0 17.15625 13.910157 31.066406 31.066407 31.066406 17.160156 0 31.066406-13.910156 31.066406-31.066406v-46.589844zm0 0" fill="#ffcd6b"/><path d="m442.417969 161.789062v46.585938c0 17.152344-13.914063 31.066406-31.066407 31.066406-3.0625 0-6.015624-.445312-8.804687-1.265625 12.875-3.792969 22.265625-15.703125 22.265625-29.800781v-46.585938zm0 0" fill="#005aaf"/><path d="m504.515625 161.789062v46.585938c0 17.152344-13.90625 31.066406-31.066406 31.066406-3.0625 0-6.015625-.445312-8.800781-1.265625 12.871093-3.792969 22.269531-15.703125 22.269531-29.800781v-46.585938zm0 0" fill="#ffc143"/><path d="m318.679688 352.816406 18.363281-26.1875c2.371093-3.382812 1.554687-8.050781-1.832031-10.421875-3.378907-2.371093-8.050782-1.554687-10.421876 1.832031l-18.363281 26.183594c-2.371093 3.382813-1.554687 8.050782 1.832031 10.425782 1.304688.914062 2.804688 1.355468 4.289063 1.355468 2.355469 0 4.675781-1.109375 6.132813-3.1875zm0 0"/><path d="m366.511719 308.628906c-3.382813-2.375-8.050781-1.554687-10.425781 1.832032l-43.738282 62.375c-2.375 3.382812-1.554687 8.050781 1.828125 10.421874 1.308594.917969 2.804688 1.355469 4.289063 1.355469 2.359375 0 4.679687-1.109375 6.136718-3.1875l43.738282-62.375c2.375-3.382812 1.554687-8.050781-1.828125-10.421875zm0 0"/><path d="m428.351562 283.695312h-154.683593c-8.535157 0-15.484375 6.945313-15.484375 15.484376v122.675781c0 8.539062 6.945312 15.484375 15.484375 15.484375h154.683593c8.535157 0 15.484376-6.945313 15.484376-15.484375v-122.675781c0-8.539063-6.949219-15.484376-15.484376-15.484376zm.515626 138.164063c0 .285156-.230469.515625-.515626.515625h-154.683593c-.285157 0-.515625-.230469-.515625-.515625v-122.679687c0-.285157.230468-.519532.515625-.519532h154.683593c.285157 0 .515626.234375.515626.519532zm0 0"/><path d="m511.976562 161.308594c-.003906-.074219-.003906-.148438-.011718-.222656-.054688-.574219-.175782-1.128907-.347656-1.65625-.007813-.019532-.007813-.035157-.015626-.050782l-48.5625-143.082031c-3.308593-9.75-12.449218-16.296875-22.742187-16.296875h-107.71875c-4.132813 0-7.484375 3.351562-7.484375 7.484375s3.351562 7.480469 7.484375 7.480469h107.71875c3.878906 0 7.320313 2.46875 8.566406 6.140625l45.210938 133.191406h-476.148438l45.210938-133.191406c1.246093-3.671875 4.6875-6.136719 8.566406-6.136719h225.953125c4.132812 0 7.484375-3.351562 7.484375-7.484375s-3.351563-7.484375-7.484375-7.484375h-225.957031c-10.292969 0-19.429688 6.550781-22.738281 16.296875l-48.5625 143.082031c-.007813.015625-.007813.03125-.015626.046875-.175781.53125-.2929682 1.085938-.3476558 1.660157-.0078124.070312-.0078124.148437-.0117187.222656-.0078125.15625-.0234375.3125-.0234375.476562v46.589844c0 12.277344 5.777344 23.226562 14.746094 30.289062v264.527344c0 4.132813 3.351562 7.484375 7.484375 7.484375h467.539062c4.132813 0 7.484375-3.351562 7.484375-7.484375v-264.527344c8.96875-7.0625 14.746094-18.011718 14.746094-30.289062v-46.589844c0-.164062-.015625-.320312-.023438-.476562zm-124.210937 7.957031h47.136719v39.109375c0 .199219.011718.394531.011718.59375-.316406 12.730469-10.761718 22.988281-23.566406 22.988281-13.003906 0-23.582031-10.578125-23.582031-23.582031zm-62.253906 39.109375v-39.109375h47.136719v39.109375c0 13.003906-10.582032 23.582031-23.585938 23.582031-12.800781 0-23.25-10.257812-23.566406-22.988281 0-.199219.015625-.394531.015625-.59375zm-62.105469 0v-39.109375h47.109375v39.109375c0 .199219.011719.394531.011719.59375-.316406 12.730469-10.761719 22.988281-23.566406 22.988281-12.8125 0-23.261719-10.269531-23.566407-23.007812 0-.191407.011719-.382813.011719-.574219zm-62.101562 0v-39.109375h47.105468v39.109375c0 .191406.011719.382812.015625.574219-.308593 12.738281-10.757812 23.007812-23.566406 23.007812-12.804687 0-23.25-10.257812-23.570313-22.988281.003907-.199219.015626-.394531.015626-.59375zm-62.101563 0v-39.109375h47.105469v39.109375c0 .199219.011718.394531.015625.59375-.316407 12.726562-10.765625 22.988281-23.566407 22.988281-12.804687 0-23.25-10.257812-23.570312-22.988281.003906-.199219.015625-.394531.015625-.59375zm-62.105469 0v-39.109375h47.105469v39.109375c0 .199219.015625.394531.015625.59375-.316406 12.730469-10.761719 22.988281-23.566406 22.988281-12.804688 0-23.25-10.257812-23.566406-22.988281 0-.199219.011718-.394531.011718-.59375zm-62.132812 0v-39.109375h47.136718v39.109375c0 .199219.011719.394531.015626.59375-.316407 12.730469-10.761719 22.988281-23.566407 22.988281-13.003906 0-23.585937-10.578125-23.585937-23.582031zm467.320312 287.332031h-265.808594v-196.527343c0-8.539063-6.945312-15.484376-15.484374-15.484376h-114.855469c-8.539063 0-15.484375 6.945313-15.484375 15.484376v46.285156c0 4.132812 3.347656 7.484375 7.480468 7.484375 4.132813 0 7.484376-3.351563 7.484376-7.484375v-46.285156c0-.285157.230468-.519532.515624-.519532h114.859376c.285156 0 .519531.234375.519531.519532v196.527343h-115.894531v-115.484375c0-4.132812-3.347657-7.484375-7.480469-7.484375-4.132813 0-7.484375 3.351563-7.484375 7.484375v115.484375h-40.9375v-249.816406c2.839844.667969 5.792968 1.03125 8.835937 1.03125 12.726563 0 24.027344-6.199219 31.050781-15.738281 7.023438 9.539062 18.324219 15.738281 31.050782 15.738281 12.726562 0 24.027344-6.199219 31.050781-15.738281 7.027344 9.535156 18.328125 15.738281 31.054687 15.738281 12.722657 0 24.023438-6.199219 31.050782-15.738281 7.023437 9.539062 18.324218 15.738281 31.050781 15.738281s24.027344-6.199219 31.050781-15.738281c7.023438 9.539062 18.324219 15.738281 31.050782 15.738281 12.726562 0 24.027343-6.199219 31.050781-15.738281 7.023437 9.539062 18.324219 15.738281 31.050781 15.738281 12.785156 0 24.125-6.257813 31.144531-15.863281 7.015625 9.605468 18.359375 15.863281 31.140625 15.863281 12.726563 0 24.027344-6.199219 31.050782-15.738281 7.027343 9.539062 18.328124 15.738281 31.050781 15.738281 3.042969 0 5.996093-.363281 8.835937-1.03125zm14.75-287.332031c0 13.003906-10.582031 23.582031-23.585937 23.582031-12.800781 0-23.25-10.257812-23.566407-22.988281.003907-.199219.015626-.394531.015626-.59375v-39.109375h47.136718zm0 0"/><path d="m183.269531 443.035156c4.132813 0 7.484375-3.347656 7.484375-7.480468 0-4.132813-3.351562-7.484376-7.484375-7.484376-3.722656 0-6.75-3.027343-6.75-6.75v-48.269531c0-3.722656 3.027344-6.75 6.75-6.75 4.132813 0 7.484375-3.351562 7.484375-7.484375 0-4.132812-3.351562-7.480468-7.484375-7.480468-11.972656 0-21.714843 9.742187-21.714843 21.714843v48.269531c0 11.972657 9.742187 21.714844 21.714843 21.714844zm0 0"/></svg>